<svg version="1.1" id="Layer_1" xmlns="http://www.w3.org/2000/svg" xmlns:xlink="http://www.w3.org/1999/xlink" x="0px" y="0px"
	 viewBox="-389 289 24 24" style="enable-background:new -389 289 24 24;" xml:space="preserve">
<style type="text/css">
	.st0{fill:none;}
</style>
<path id="Shape_1_" class="st0" d="M-389,289L-389,289h24v24h-24"/>
<path d="M-367,294h-12c-0.5,0-1,0.5-1,1v12c0,0.5,0.5,1,1,1h12c0.5,0,1-0.5,1-1v-12C-366,294.5-366.5,294-367,294z M-373,296.8
	c1.2,0,2.2,1,2.2,2.2s-1,2.2-2.2,2.2s-2.2-1-2.2-2.2S-374.2,296.8-373,296.8z M-368.5,306h-9v-0.8c0-1.5,3-2.2,4.5-2.2
	s4.5,0.8,4.5,2.2V306z M-383,294h1v7v7h-1c-0.5,0-1-0.5-1-1v-12C-384,294.5-383.5,294-383,294z M-387,294h1v7v7h-1c-0.5,0-1-0.5-1-1
	v-12C-388,294.5-387.5,294-387,294z"/>
</svg>
