<svg width="22px" height="14px" viewBox="0 0 22 14" version="1.1" xmlns="http://www.w3.org/2000/svg" xmlns:xlink="http://www.w3.org/1999/xlink">
    <g stroke="none" stroke-width="1" fill="none" fill-rule="evenodd">
        <g id="ic_gif" transform="translate(-1.000000, -5.000000)">
            <path d="M0,0 L24,0 L24,24 L0,24 L0,0 L0,0 Z" id="Shape"></path>
            <path d="M1,5 L3,5 L3,19 L1,19 L1,5 Z M5,5 L7,5 L7,19 L5,19 L5,5 Z M22,5 L10,5 C9.45,5 9,5.45 9,6 L9,18 C9,18.55 9.45,19 10,19 L22,19 C22.55,19 23,18.55 23,18 L23,6 C23,5.45 22.55,5 22,5 L22,5 Z M16,12.25 C17.24,12.25 18.25,11.24 18.25,10 C18.25,8.76 17.24,7.75 16,7.75 C14.76,7.75 13.75,8.76 13.75,10 C13.75,11.24 14.76,12.25 16,12.25 L16,12.25 Z M20.5,16.25 C20.5,14.75 17.5,14 16,14 C14.5,14 11.5,14.75 11.5,16.25 L11.5,17 L20.5,17 L20.5,16.25 L20.5,16.25 Z" id="Shape" fill="#757575"></path>
        </g>
    </g>
</svg>
