<svg class="jquery-icon-svg" width="30px" height="29px" viewBox="0 0 30 29" version="1.1" xmlns="http://www.w3.org/2000/svg" xmlns:xlink="http://www.w3.org/1999/xlink">
    <g stroke="none" stroke-width="1" fill="none" fill-rule="evenodd">
        <path d="M1.91175916,6.79566956 C-0.753545368,10.6265452 -0.421749329,15.6105208 1.6143131,19.680906 C1.66272027,19.7784942 1.71346179,19.8745156 1.76342625,19.9705433 C1.79544188,20.0314376 1.82549091,20.0938923 1.85867052,20.1540064 C1.87741559,20.1899009 1.89848221,20.2250471 1.91800432,20.2594002 C1.95273802,20.3241958 1.98826476,20.3858735 2.02417522,20.4491085 C2.08741344,20.5607475 2.15221216,20.6716063 2.21856817,20.7824715 C2.25526208,20.8433626 2.29156586,20.9042568 2.32943013,20.9651511 C2.40281474,21.0838155 2.47815316,21.2009195 2.55504888,21.3180202 C2.58706451,21.3679847 2.61828391,21.4179491 2.65107339,21.4663499 C2.75725068,21.6248324 2.86576551,21.7825314 2.97778504,21.9378866 C2.98056707,21.9418837 2.98362089,21.9464884 2.98713839,21.9503577 C3.00472588,21.9753319 3.02423201,21.9995419 3.04217765,22.0245257 C3.1389856,22.1580212 3.23891454,22.2899594 3.34001384,22.4203403 C3.37710746,22.4679608 3.41456882,22.5155845 3.45204297,22.5632051 C3.54221564,22.6764078 3.63394561,22.7888302 3.72723926,22.9012367 C3.76197296,22.9433955 3.79710957,22.9855479 3.83223979,23.0269265 C3.95754268,23.1744791 4.0851831,23.3212484 4.21555119,23.464887 C4.21794948,23.4671254 4.22102889,23.4703551 4.22334405,23.4726895 C4.22882175,23.478925 4.23349683,23.4828263 4.2381719,23.4890618 C4.3654254,23.6280254 4.49579989,23.7638648 4.62775085,23.8997138 C4.6687329,23.9418726 4.7105048,23.9840314 4.75266042,24.02541 C4.85493009,24.1284599 4.95876025,24.2299525 5.06376717,24.3306585 C5.10631291,24.3712536 5.14847173,24.4126322 5.19102067,24.4516669 C5.33115141,24.583605 5.47284904,24.7131993 5.61727753,24.8396789 C5.61967583,24.8419173 5.62155289,24.8436761 5.62391281,24.845147 C5.64849693,24.8670195 5.67387728,24.8873058 5.69808087,24.9083821 C5.82533437,25.0184606 5.95492861,25.1277588 6.0852935,25.2355094 C6.13837894,25.2784485 6.19225103,25.3206073 6.2457266,25.3635432 C6.35229082,25.4486378 6.4600254,25.5329555 6.56853703,25.6157094 C6.62592022,25.6594287 6.68330021,25.7031448 6.74107353,25.7468674 C6.86090831,25.835083 6.98152653,25.9217414 7.10331192,26.0068393 C7.14780827,26.0388549 7.19075053,26.0700743 7.23524689,26.1005198 C7.24771802,26.1091217 7.25906995,26.1176916 7.27154108,26.1262935 C7.38708771,26.2059233 7.5053588,26.2824289 7.62325895,26.3589409 C7.67400366,26.392517 7.72435825,26.4276376 7.77549628,26.4604271 C7.95661548,26.5751903 8.14048472,26.688393 8.32627259,26.7976912 C8.37662398,26.8265987 8.42776202,26.8546811 8.47850353,26.8835694 C8.61512637,26.9624189 8.75252945,27.0397079 8.89187356,27.1154365 C8.96721198,27.1560316 9.04450101,27.194286 9.12061968,27.2333206 C9.21898493,27.2848456 9.31657313,27.3371508 9.41650206,27.3871153 C9.43912597,27.3980835 9.4625653,27.4089877 9.48481188,27.419892 C9.52502009,27.4393981 9.56561522,27.4581464 9.60582022,27.4784455 C9.76078522,27.5526136 9.91692698,27.6252179 10.0746388,27.6954816 C10.1082149,27.710319 10.1406079,27.7251565 10.1737875,27.7399811 C10.3545166,27.8188275 10.5367933,27.894556 10.7206626,27.9671636 C10.764772,27.9851028 10.8092716,28.002297 10.8537711,28.0194656 C11.0239605,28.0850477 11.1965034,28.1498464 11.3698201,28.2107375 C11.3916862,28.21854 11.4127624,28.225575 11.4346188,28.2333455 C11.6247205,28.2997079 11.8167791,28.3613792 12.0099857,28.4214933 C12.0560457,28.4347638 12.1024959,28.4496013 12.148946,28.4628718 C12.3456829,28.5222056 12.5400919,28.5932463 12.7430515,28.6307205 C25.6330846,30.9814007 29.3773019,20.8845493 29.3773019,20.8845493 C26.2326582,24.9814757 20.6507079,26.0619873 15.361989,24.8590028 C15.1617411,24.813723 14.9673577,24.7512682 14.7717848,24.6934949 C14.7222072,24.6786574 14.6734163,24.663852 14.6246222,24.6489953 C14.4337436,24.590445 14.2444126,24.5287704 14.0562904,24.4639717 C14.0305103,24.4546343 14.0043721,24.445233 13.9782179,24.4358637 C13.8095891,24.3765299 13.6429044,24.3140751 13.4770064,24.2500598 C13.4301629,24.2313212 13.3833194,24.2133659 13.3364823,24.1946304 C13.1545797,24.1228063 12.9738602,24.047858 12.7954591,23.9697919 C12.7587652,23.9541551 12.7236349,23.9377731 12.6873312,23.922165 C12.5339235,23.8526848 12.3820794,23.7824244 12.2310157,23.7098168 C12.1872996,23.6887438 12.1435771,23.6684415 12.0990775,23.6465818 C11.9804419,23.588703 11.8630853,23.5269869 11.7460486,23.4668696 C11.6677043,23.4256189 11.5880809,23.3866067 11.5103762,23.3434374 C11.3674378,23.2670117 11.2270577,23.1873884 11.087317,23.1061661 C11.0399907,23.079625 10.9920248,23.0540432 10.9443787,23.0265428 C10.7585908,22.9171805 10.5750413,22.803981 10.3934105,22.6891827 C10.3432062,22.6572054 10.294281,22.6229897 10.2447163,22.5900532 C10.11297,22.5049937 9.9818632,22.4183353 9.85267507,22.3294385 C9.80982554,22.3003392 9.76857488,22.2693213 9.7263649,22.2405417 C9.60165359,22.1522845 9.47822137,22.0630679 9.35574847,21.9725723 C9.30010804,21.9313216 9.24542692,21.8897512 9.19138536,21.8485005 C9.07914518,21.7624817 8.96754454,21.6758233 8.85690323,21.5869266 C8.80693876,21.5471149 8.75697429,21.5072968 8.70779007,21.4674787 C8.56726601,21.3519385 8.42830243,21.2356116 8.29128627,21.1161765 C8.27685813,21.1037054 8.26122765,21.0912023 8.24561635,21.0779221 C8.09728664,20.9475477 7.95168459,20.8140458 7.80765581,20.6797733 C7.76588712,20.6399616 7.72528879,20.6009206 7.68430354,20.5611057 C7.57773932,20.4596163 7.47273879,20.3573466 7.36968248,20.252733 C7.32830711,20.2113544 7.28692854,20.1707593 7.24633341,20.1293807 C7.11517868,19.995105 6.98636149,19.8592592 6.86027196,19.7210951 C6.85403639,19.7140601 6.84740111,19.7078245 6.84116555,19.7007895 C6.70766369,19.5547973 6.57728921,19.4056874 6.44963599,19.2550265 C6.41490229,19.2136511 6.38132617,19.1738363 6.346973,19.1332411 C6.25172873,19.0184779 6.15726471,18.9021543 6.06514143,18.7850408 C6.03060599,18.7428308 5.99607055,18.6996615 5.96185488,18.6561724 C5.85089379,18.5122747 5.74249088,18.3686968 5.63632639,18.2228805 C2.70007854,14.2177289 1.6452447,8.69365738 3.99205573,4.15704366 L1.91175916,6.79566956 Z M10.081455,3.50239882 C8.15392974,6.27620219 8.25852735,9.98930557 9.76214923,12.9228993 C10.0143155,13.4147415 10.2977044,13.8917463 10.614663,14.3461112 C10.9035167,14.7598649 11.2236059,15.2525066 11.6069173,15.5850701 C11.7458841,15.7380876 11.8910928,15.8871976 12.0394097,16.0339668 C12.0768615,16.0722212 12.1151351,16.1089151 12.1533927,16.1463893 C12.297431,16.2861331 12.4438101,16.4235362 12.5952544,16.5570412 C12.60149,16.5617099 12.6069677,16.5679455 12.6132033,16.5726781 C12.6148021,16.574277 12.616401,16.5749165 12.6174786,16.5766753 C12.7849371,16.7234477 12.9578446,16.8647552 13.1335276,17.0036996 C13.1725783,17.0333425 13.2112068,17.0645971 13.2506315,17.0950426 C13.4266791,17.230105 13.6062506,17.3628202 13.7904716,17.4892902 C13.7959493,17.4932874 13.8006244,17.4970927 13.8061021,17.5009939 C13.8872956,17.5572035 13.9700495,17.6095119 14.0524102,17.6633776 C14.0918221,17.6891513 14.1293123,17.7164663 14.1691271,17.7406667 C14.3006752,17.8249811 14.4337773,17.9069548 14.5692266,17.9858043 C14.5883714,17.997508 14.6070813,18.0076768 14.6258264,18.018581 C14.7425434,18.0857173 14.8608144,18.1520765 14.9794948,18.216095 C15.0208702,18.2395023 15.0630258,18.2598143 15.1051847,18.2816739 C15.1871584,18.3246098 15.2691321,18.3683323 15.3526631,18.4097077 C15.3651342,18.4159432 15.3780434,18.4214114 15.3901148,18.4269114 C15.5599173,18.5104424 15.7312802,18.5908588 15.9061638,18.6673644 C15.9436156,18.6837688 15.9822825,18.6985742 16.0201436,18.7142047 C16.1598874,18.7735385 16.3011949,18.8313118 16.4432667,18.885961 C16.5033807,18.9086009 16.5642718,18.9304605 16.6243859,18.952317 C16.753203,18.9999375 16.8824072,19.04366 17.0127816,19.0873761 C17.0717221,19.1061148 17.1294986,19.1256305 17.1884391,19.143589 C17.3738497,19.2013591 17.5569131,19.2739635 17.7501517,19.3059727 C27.7024339,20.9547841 30,13.2923294 30,13.2923294 C27.9288329,16.2753599 23.9179254,17.6984759 19.6377692,16.5875859 C19.4476676,16.5376214 19.2603097,16.4829723 19.0741061,16.4244155 C19.0171162,16.4072438 18.9612935,16.3885211 18.9046938,16.3697728 C18.7723687,16.3268305 18.6408206,16.2815507 18.5104462,16.233927 C18.4507254,16.2120546 18.3910047,16.1902109 18.3324479,16.167571 C18.1895799,16.1129219 18.0482724,16.055932 17.9081417,15.9965982 C17.8698905,15.9801939 17.8312396,15.9653884 17.7937654,15.9481942 C17.6181112,15.8716854 17.4451813,15.7912754 17.2746146,15.7069578 C17.1867859,15.6640219 17.1005176,15.6187421 17.0142526,15.5742426 C16.9642881,15.5485009 16.9139335,15.5227176 16.8639659,15.4969535 C16.7531071,15.4368395 16.6430318,15.3743847 16.5345042,15.3111497 C16.5087625,15.2963122 16.4818089,15.2822422 16.4556547,15.2666469 C16.3209824,15.1877974 16.188264,15.1066071 16.0567064,15.0230729 C16.0161112,14.9972993 15.9770766,14.969204 15.9364783,14.9426597 C15.8498199,14.8864501 15.7631647,14.8294602 15.67807,14.7716869 C15.4946037,14.6452137 15.3162154,14.5124952 15.1401806,14.3782067 C15.0995854,14.3461879 15.0589903,14.3149717 15.0191754,14.2829625 C13.1456278,12.8036945 11.6606039,10.7824119 10.954546,8.49028202 C10.2145923,6.11309259 10.3741588,3.44459033 11.6561271,1.27909036 L10.081455,3.50239882 Z M17.2758653,1.17249416 C16.1395534,2.84474492 16.0279208,4.921508 16.8164161,6.76851448 C17.6478568,8.72884836 19.351733,10.2668266 21.3402389,10.9959081 C21.4222126,11.0263824 21.5041863,11.0536782 21.5873304,11.081783 C21.6236246,11.0927193 21.6595414,11.1052224 21.6962385,11.116117 C21.8133424,11.1528109 21.9296661,11.19575 22.0506744,11.2183899 C27.5459664,12.2801308 29.0364264,8.39850728 29.4332642,7.82720158 C28.1275688,9.70711265 25.9333532,10.1583438 23.2411878,9.50492044 C23.028539,9.45311728 22.7947853,9.37637186 22.589811,9.30378348 C22.326958,9.21009012 22.0679422,9.10328607 21.8162811,8.98241203 C21.3382211,8.75281531 20.8825452,8.47397361 20.4601256,8.15484057 C18.0509589,6.32702045 16.5544232,2.83990037 18.1264252,0 L17.2758653,1.17249416 Z"></path>
    </g>
</svg>
