<svg id="svg11927" xmlns="http://www.w3.org/2000/svg" viewBox="0 0 24 16.82"><defs><style>.youtube-svg{fill:#cc181e;}</style></defs><title>ic_youtube</title><path id="path11905" class="youtube-svg" d="M2.9,20.28c-2.29-.48-2.88-2.1-2.9-8,0-4.17.16-5.59,0.85-7C1.39,4.27,2,3.93,3.9,3.74s11.46-.2,15.29,0c5.35,0.34,4.74,2.84,4.8,7.8C24,16.67,23.91,17.79,23,19.1s-0.53,1.26-10.47,1.31c-5,0-9.23,0-9.68-.12h0Zm13-8.32c-2.24-1.49-4.64-3.07-5.85-3.81,0.05,2.08,0,5.88,0,7.75,1.78-1.1,4.48-2.94,5.81-3.93h0Z" transform="translate(0 -3.59)"/></svg>
