<?xml version="1.0" encoding="utf-8"?>
<!-- Generator: Adobe Illustrator 16.0.4, SVG Export Plug-In . SVG Version: 6.00 Build 0)  -->
<!DOCTYPE svg PUBLIC "-//W3C//DTD SVG 1.1//EN" "http://www.w3.org/Graphics/SVG/1.1/DTD/svg11.dtd">
<svg version="1.1" id="Layer_1" xmlns="http://www.w3.org/2000/svg" xmlns:xlink="http://www.w3.org/1999/xlink" x="0px" y="0px"
	 width="50px" height="50px" viewBox="0 0 50 50" enable-background="new 0 0 50 50" xml:space="preserve">
<g>
	<path d="M45.467,8.466v24.681H4.493V8.466H45.467 M45.467,7.188H4.493c-0.706,0-1.278,0.572-1.278,1.278v24.681
		c0,0.706,0.572,1.278,1.278,1.278h40.974c0.706,0,1.278-0.572,1.278-1.278V8.466C46.745,7.76,46.173,7.188,45.467,7.188
		L45.467,7.188z"/>
	<g>
		<path d="M13.112,29.126v1.265H9.952v-1.265H13.112 M13.112,27.848H9.952c-0.706,0-1.278,0.572-1.278,1.278v1.265
			c0,0.706,0.572,1.278,1.278,1.278h3.161c0.706,0,1.278-0.572,1.278-1.278v-1.265C14.39,28.42,13.818,27.848,13.112,27.848
			L13.112,27.848z"/>
		<path d="M22.058,29.126v1.265h-3.16v-1.265H22.058 M22.058,27.848h-3.16c-0.706,0-1.278,0.572-1.278,1.278v1.265
			c0,0.706,0.572,1.278,1.278,1.278h3.16c0.706,0,1.278-0.572,1.278-1.278v-1.265C23.335,28.42,22.764,27.848,22.058,27.848
			L22.058,27.848z"/>
		<path d="M31.004,29.126v1.265h-3.16v-1.265H31.004 M31.004,27.848h-3.16c-0.706,0-1.278,0.572-1.278,1.278v1.265
			c0,0.706,0.572,1.278,1.278,1.278h3.16c0.705,0,1.277-0.572,1.277-1.278v-1.265C32.281,28.42,31.709,27.848,31.004,27.848
			L31.004,27.848z"/>
		<path d="M39.949,29.126v1.265h-3.16v-1.265H39.949 M39.949,27.848h-3.16c-0.706,0-1.277,0.572-1.277,1.278v1.265
			c0,0.706,0.571,1.278,1.277,1.278h3.16c0.706,0,1.277-0.572,1.277-1.278v-1.265C41.227,28.42,40.655,27.848,39.949,27.848
			L39.949,27.848z"/>
	</g>
	<path d="M38,41.632H12c-0.353,0-0.639-0.286-0.639-0.639s0.286-0.639,0.639-0.639h26c0.354,0,0.639,0.286,0.639,0.639
		S38.354,41.632,38,41.632z"/>
	<path d="M24.78,11.607c1.94,0,3.515,1.573,3.515,3.515s-1.574,3.515-3.515,3.515c-1.941,0-3.514-1.573-3.514-3.515
		S22.839,11.607,24.78,11.607 M24.78,10.329c-2.643,0-4.792,2.15-4.792,4.793s2.149,4.793,4.792,4.793s4.792-2.15,4.792-4.793
		S27.423,10.329,24.78,10.329L24.78,10.329z"/>
	<path d="M32.715,26.304c-0.224,0-0.441-0.117-0.559-0.327c-1.231-2.203-3.506-3.187-7.376-3.187c-4.455,0-5.937,1.042-7.403,3.23
		c-0.196,0.295-0.595,0.369-0.886,0.176c-0.293-0.197-0.372-0.594-0.175-0.887c1.902-2.839,4.038-3.797,8.465-3.797
		c4.329,0,7.027,1.22,8.491,3.841c0.173,0.308,0.062,0.697-0.246,0.869C32.928,26.278,32.82,26.304,32.715,26.304z"/>
</g>
</svg>
