<?xml version="1.0" encoding="utf-8"?>
<!-- Generator: Adobe Illustrator 16.0.4, SVG Export Plug-In . SVG Version: 6.00 Build 0)  -->
<!DOCTYPE svg PUBLIC "-//W3C//DTD SVG 1.1//EN" "http://www.w3.org/Graphics/SVG/1.1/DTD/svg11.dtd">
<svg version="1.1" id="Layer_1" xmlns="http://www.w3.org/2000/svg" xmlns:xlink="http://www.w3.org/1999/xlink" x="0px" y="0px"
	 width="50px" height="50px" viewBox="0 0 50 50" enable-background="new 0 0 50 50" xml:space="preserve">
<g>
	<path d="M5.721,45.416c-0.158,0-0.313-0.058-0.433-0.169c-0.184-0.169-0.251-0.43-0.175-0.667l1.725-5.32
		c-3.305-2.584-5.19-6.226-5.19-10.058c0-7.531,7.202-13.658,16.055-13.658s16.055,6.127,16.055,13.658S26.555,42.86,17.702,42.86
		c-1.506,0-2.998-0.178-4.438-0.529l-7.297,3.036C5.887,45.4,5.804,45.416,5.721,45.416z M17.702,16.821
		c-8.148,0-14.776,5.555-14.776,12.381c0,3.562,1.836,6.954,5.038,9.309c0.222,0.163,0.314,0.45,0.229,0.712l-1.437,4.432
		l6.211-2.584c0.128-0.054,0.269-0.064,0.404-0.029c1.401,0.359,2.858,0.542,4.33,0.542c8.148,0,14.776-5.554,14.776-12.381
		C32.479,22.376,25.85,16.821,17.702,16.821z"/>
	<path d="M44.061,33.914c-0.084,0-0.166-0.016-0.246-0.049l-7.297-3.036c-0.141,0.034-0.283,0.066-0.425,0.099
		c-0.346,0.071-0.687-0.142-0.763-0.485s0.141-0.686,0.484-0.763c0.199-0.044,0.396-0.089,0.593-0.14
		c0.134-0.035,0.276-0.024,0.406,0.028l6.211,2.584l-1.437-4.432c-0.085-0.262,0.008-0.549,0.229-0.712
		c3.202-2.354,5.038-5.747,5.038-9.309c0-6.826-6.629-12.38-14.776-12.38c-6.118,0-11.677,3.225-13.833,8.024
		c-0.144,0.322-0.521,0.468-0.845,0.321c-0.322-0.145-0.466-0.523-0.321-0.845c2.359-5.251,8.387-8.778,15-8.778
		c8.853,0,16.055,6.126,16.055,13.657c0,3.832-1.886,7.474-5.19,10.058l1.725,5.32c0.076,0.237,0.009,0.498-0.175,0.667
		C44.373,33.856,44.218,33.914,44.061,33.914z"/>
</g>
</svg>
