<?xml version="1.0" encoding="utf-8"?>
<!-- Generator: Adobe Illustrator 16.0.4, SVG Export Plug-In . SVG Version: 6.00 Build 0)  -->
<!DOCTYPE svg PUBLIC "-//W3C//DTD SVG 1.1//EN" "http://www.w3.org/Graphics/SVG/1.1/DTD/svg11.dtd">
<svg version="1.1" id="Layer_1" xmlns="http://www.w3.org/2000/svg" xmlns:xlink="http://www.w3.org/1999/xlink" x="0px" y="0px"
	 width="50px" height="50px" viewBox="0 0 50 50" enable-background="new 0 0 50 50" xml:space="preserve">
<g>
	<path d="M45.334,16.849v24.681H4.359V16.849H45.334 M45.334,15.57H4.359c-0.706,0-1.278,0.572-1.278,1.278v24.681
		c0,0.706,0.572,1.278,1.278,1.278h40.975c0.705,0,1.277-0.572,1.277-1.278V16.849C46.611,16.143,46.039,15.57,45.334,15.57
		L45.334,15.57z"/>
	<path d="M41.866,12.568h-35c-0.353,0-0.639-0.286-0.639-0.639s0.286-0.639,0.639-0.639h35c0.353,0,0.64,0.286,0.64,0.639
		S42.219,12.568,41.866,12.568z"/>
	<path d="M37.866,8.568h-26c-0.353,0-0.639-0.286-0.639-0.639s0.286-0.639,0.639-0.639h26c0.353,0,0.64,0.286,0.64,0.639
		S38.219,8.568,37.866,8.568z"/>
	<path d="M21.611,23.681l8.627,5.509l-8.627,5.509V23.681 M21.611,22.402c-0.211,0-0.422,0.053-0.614,0.157
		c-0.409,0.225-0.664,0.654-0.664,1.121v11.018c0,0.467,0.254,0.896,0.664,1.121c0.192,0.104,0.403,0.157,0.614,0.157
		c0.24,0,0.479-0.067,0.688-0.201l8.626-5.509c0.367-0.234,0.59-0.641,0.59-1.077s-0.223-0.843-0.59-1.077l-8.626-5.509
		C22.09,22.47,21.851,22.402,21.611,22.402L21.611,22.402z"/>
</g>
</svg>
