<svg class="devtips-logo-svg" width="50px" height="40px" viewBox="0 0 50 40" version="1.1" xmlns="http://www.w3.org/2000/svg" xmlns:xlink="http://www.w3.org/1999/xlink">
  <g id="Page-1" stroke="none" stroke-width="1" fill="none" fill-rule="evenodd">
      <path d="M16.567667,11.3620203 C16.567667,10.0424134 16.2988952,9.01032984 15.7613517,8.26501947 C15.2235581,7.51995912 14.4602463,7.14717892 13.4706661,7.14717892 C13.3359052,7.14717892 13.2201458,7.15017916 13.1223879,7.15642967 C13.02463,7.16268018 12.9086206,7.17193093 12.7743597,7.1839319 L12.7743597,15.7051221 C12.9086206,15.7296241 13.0276302,15.7448753 13.1316387,15.7508758 C13.2353971,15.7571263 13.3791587,15.7598766 13.5621735,15.7598766 C14.0629641,15.7598766 14.4997495,15.6563682 14.8725297,15.4483513 C15.2450598,15.2408345 15.5565851,14.9445605 15.8071054,14.5597793 C16.0573756,14.1749982 16.246891,13.7139608 16.3751514,13.1761673 C16.5034118,12.6386237 16.567667,12.0340748 16.567667,11.3620203 L16.567667,11.3620203 Z M19.481403,11.3435188 C19.481403,12.3943539 19.3466421,13.3474311 19.0781203,14.2025004 C18.8093486,15.0578197 18.4028156,15.7873788 17.8595216,16.3921778 C17.3159776,16.9969768 16.6346724,17.4612644 15.8163561,17.7850406 C14.9975398,18.1088168 14.0387121,18.2705799 12.9391231,18.2705799 C12.3895786,18.2705799 11.8947885,18.2523284 11.4547528,18.2155755 C11.0149672,18.1788225 10.5264276,18.1303186 9.9888841,18.0690636 L9.9888841,4.81999042 C10.4896747,4.75873546 10.962963,4.70998151 11.4089991,4.67322853 C11.8550353,4.63647555 12.3465751,4.61822408 12.8843686,4.61822408 C13.9837077,4.61822408 14.9457856,4.77423671 15.7706024,5.08576195 C16.5951692,5.39703716 17.2822249,5.84332331 17.8320194,6.42337029 C18.3818139,7.0036673 18.7940973,7.70922445 19.0688696,8.54004174 C19.3438919,9.37085904 19.481403,10.3054347 19.481403,11.3435188 Z M21.5097173,18.160546 L21.5097173,4.72795796 L28.4732813,4.72795796 L28.4732813,7.29366579 L24.2951929,7.29366579 L24.2951929,10.0608899 L27.9967427,10.0608899 L27.9967427,12.5163388 L24.2951929,12.5163388 L24.2951929,15.5950882 L28.4732813,15.5950882 L28.4732813,18.160546 L21.5097173,18.160546 Z M36.3275675,18.2704299 L34.9167033,18.2704299 L30.518597,4.7098315 L33.5238404,4.7098315 L35.6495126,12.5897198 L37.7751848,4.7098315 L40.7439253,4.7098315 L36.3275675,18.2704299 Z M14.9548613,23.481427 L14.9548613,34.3300557 L12.1696357,34.3300557 L12.1696357,23.481427 L9.25589973,23.481427 L9.25589973,20.8974677 L17.8503459,20.8974677 L17.8503459,23.481427 L14.9548613,23.481427 Z M18.9862129,34.3302808 L21.7714385,34.3302808 L21.7714385,20.8976927 L18.9862129,20.8976927 L18.9862129,34.3302808 Z M31.8653311,25.4605123 C31.8653311,26.0835628 31.7673232,26.679111 31.5720573,27.247407 C31.3765415,27.8154531 31.0832677,28.3132434 30.6924861,28.740778 C30.3014544,29.1685627 29.8156651,29.5105904 29.2356181,29.7668611 C28.6553211,30.0233819 27.9805164,30.1518923 27.2107041,30.1518923 L26.8624259,30.1518923 C26.7646679,30.1518923 26.6609095,30.1458918 26.5511506,30.1336408 L26.5511506,34.3299807 L23.765425,34.3299807 L23.765425,20.9891501 C24.2297126,20.9281452 24.7000007,20.8791412 25.1767893,20.8428883 C25.6530779,20.8058853 26.147868,20.7878838 26.6609095,20.7878838 C27.5407308,20.7878838 28.3070429,20.9066434 28.9608458,21.1451628 C29.6141487,21.3834321 30.1546925,21.7132088 30.5824772,22.1347429 C31.0100118,22.556027 31.3307878,23.0510671 31.5445551,23.6188631 C31.7583224,24.1871592 31.8653311,24.8012089 31.8653311,25.4605123 Z M29.061604,25.5155168 C29.061604,24.8194604 28.8965906,24.2876673 28.5668139,23.9211376 C28.2370372,23.5546079 27.7787501,23.3715931 27.1924526,23.3715931 C27.0824437,23.3715931 26.9816855,23.3745933 26.8899281,23.3805938 C26.7984207,23.3870944 26.6851615,23.3960951 26.5511506,23.4080961 L26.5511506,27.6964434 C26.6609095,27.7084444 26.7554172,27.7179452 26.8349236,27.7236956 C26.9144301,27.7299461 27.0029372,27.7329464 27.1006952,27.7329464 C27.7114946,27.7329464 28.1910335,27.5466813 28.5393117,27.1741511 C28.8873399,26.8016209 29.061604,26.2488262 29.061604,25.5155168 Z M40.3042146,30.6099294 C40.3042146,31.135472 40.221958,31.6335123 40.0566946,32.1035504 C39.8919312,32.5738385 39.641411,32.9896222 39.3056338,33.3496513 C38.9693565,33.7101805 38.5510726,33.9974538 38.0502821,34.2109711 C37.5492415,34.4247384 36.9689445,34.5319971 36.3093911,34.5319971 C35.6860906,34.5319971 35.0292874,34.4214881 34.3392315,34.2017203 C33.6491756,33.9817025 33.0291254,33.6826783 32.4793308,33.3038976 L33.3038976,30.7749428 C33.7556842,31.1169705 34.2322228,31.395243 34.7332634,31.6087603 C35.234054,31.8227776 35.7348445,31.9292863 36.2361351,31.9292863 C36.6756707,31.9292863 36.9934465,31.8227776 37.1889623,31.6087603 C37.3842281,31.395243 37.4822361,31.123221 37.4822361,30.7931942 C37.4822361,30.6224304 37.4547338,30.4576671 37.3997294,30.2984042 C37.3447249,30.1398913 37.2439668,29.9688775 37.0972049,29.7853626 C36.950693,29.6023478 36.7459264,29.3975812 36.4834052,29.1715629 C36.2206339,28.9457946 35.8816064,28.6860236 35.4663228,28.3927498 C34.5377476,27.7451974 33.8659431,27.1071457 33.4506595,26.4778447 C33.0351258,25.8485437 32.827609,25.1612381 32.827609,24.4164277 C32.827609,23.9393891 32.9161162,23.4788518 33.0933806,23.0325656 C33.2701449,22.5867795 33.5299159,22.1894973 33.8721936,21.8414692 C34.2139713,21.4931909 34.6325052,21.2156685 35.1272953,21.0076516 C35.6220854,20.8003848 36.1871312,20.6963764 36.8224326,20.6963764 C37.469735,20.6963764 38.0562826,20.7786331 38.5818251,20.9433964 C39.1066176,21.1084098 39.5896568,21.3316779 40.0294424,21.6124506 L39.2048756,24.123154 C38.8258449,23.8541322 38.444064,23.6371146 38.0592828,23.4723513 C37.6745016,23.3073379 37.2927207,23.2248312 36.91419,23.2248312 C36.4864054,23.2248312 36.1656294,23.3255894 35.9518621,23.5271057 C35.7380948,23.7291221 35.6313361,23.9826426 35.6313361,24.2876673 C35.6313361,24.4709321 35.6648389,24.6391958 35.7320943,24.7917081 C35.7990997,24.9447205 35.9091086,25.0972329 36.061871,25.2499952 C36.2143834,25.4030076 36.4128994,25.5737715 36.6574193,25.7630368 C36.901689,25.9523021 37.2072138,26.1815707 37.5737435,26.4500925 C38.086785,26.8166221 38.5175699,27.1651504 38.8658481,27.4946771 C39.2138763,27.8244538 39.4948991,28.1547305 39.7086664,28.4842572 C39.9224337,28.8140339 40.0751961,29.1533114 40.1669535,29.5013396 C40.2584609,29.8496178 40.3042146,30.2191478 40.3042146,30.6099294 Z M49.0649243,20.8554643 C48.061843,20.8554643 47.3910387,21.0792324 47.0525113,21.5265186 C46.7132338,21.9738049 46.5444701,22.6311081 46.5444701,23.4979283 L46.5444701,32.1166264 C46.5444701,36.8052562 44.2537846,39.1499461 39.6736636,39.1499461 L39.6736636,36.3447189 C40.9475167,36.3447189 41.9230958,36.0461947 42.6009007,35.4503965 C43.2779555,34.8538482 43.617233,33.7837615 43.617233,32.2386363 L43.617233,24.1892343 C43.617233,23.5386816 43.6509857,22.9838867 43.7189912,22.5223493 C43.7862467,22.061812 43.9222577,21.6552791 44.1255242,21.3027505 C44.3287906,20.950722 44.6133137,20.6459473 44.9790933,20.3879264 C45.345123,20.1311556 45.8126608,19.8663842 46.3817069,19.5953622 C45.8126608,19.3245903 45.345123,19.0535683 44.9790933,18.7820463 C44.6133137,18.5115244 44.3287906,18.2067497 44.1255242,17.8674723 C43.9222577,17.5286948 43.7862467,17.1294125 43.7189912,16.6681251 C43.6509857,16.2075878 43.617233,15.6517928 43.617233,15.0012401 L43.617233,6.9110848 C43.617233,5.36620966 43.2779555,4.30287353 42.6009007,3.71957629 C41.9230958,3.13727912 40.9475167,2.84575551 39.6736636,2.84575551 L39.6736636,2.50020252e-05 C44.2537846,2.50020252e-05 46.5444701,2.35771597 46.5444701,7.07359796 L46.5444701,15.6517928 C46.5444701,16.5461152 46.7132338,17.2106691 47.0525113,17.6439542 C47.3910387,18.0777393 48.061843,18.2942568 49.0649243,18.2942568 L50,18.2942568 L50,20.8554643 L49.0649243,20.8554643 Z M10.3260864,39.1499211 C5.74546538,39.1499211 3.4555299,36.8052312 3.4555299,32.1166014 L3.4555299,23.4981534 C3.4555299,22.6308331 3.28601617,21.9735299 2.94748875,21.5264936 C2.60821127,21.0789574 1.93740693,20.8554393 0.934825721,20.8554393 L0,20.8554393 L0,18.2944819 L0.934825721,18.2944819 C1.93740693,18.2944819 2.60821127,18.0777143 2.94748875,17.6439292 C3.28601617,17.2106441 3.4555299,16.5460902 3.4555299,15.6517678 L3.4555299,7.07382298 C3.4555299,2.35769097 5.74546538,0 10.3260864,0 L10.3260864,2.8457305 C9.05173319,2.8457305 8.07615417,3.13725412 7.39909933,3.7198013 C6.72129442,4.30284853 6.38251698,5.36618466 6.38251698,6.9110598 L6.38251698,15.0014651 C6.38251698,15.6517678 6.34826421,16.2075628 6.28100876,16.6681001 C6.21300325,17.1293875 6.0777423,17.5289198 5.87447583,17.8674473 C5.67120937,18.2067247 5.38668632,18.5114994 5.02065667,18.7820213 C4.65487705,19.0535433 4.18733917,19.3248153 3.61804306,19.5953372 C4.18733917,19.8666092 4.65487705,20.1308806 5.02065667,20.3881514 C5.38668632,20.6459223 5.67120937,20.950697 5.87447583,21.3027255 C6.0777423,21.6552541 6.21300325,22.061787 6.28100876,22.5223243 C6.34826421,22.9836117 6.38251698,23.5389067 6.38251698,24.1892093 L6.38251698,32.2386113 C6.38251698,33.7837365 6.72129442,34.8538232 7.39909933,35.4503715 C8.07615417,36.0461697 9.05173319,36.3446939 10.3260864,36.3446939 L10.3260864,39.1499211 Z" id="Combined-Shape" fill="#000000"></path>
  </g>
</svg>
